<?xml version="1.0" standalone="no"?>
<!DOCTYPE svg PUBLIC "-//W3C//DTD SVG 20010904//EN"
 "http://www.w3.org/TR/2001/REC-SVG-20010904/DTD/svg10.dtd">
<svg version="1.0" xmlns="http://www.w3.org/2000/svg"
 width="225.000000pt" height="225.000000pt" viewBox="0 0 225.000000 225.000000"
 preserveAspectRatio="xMidYMid meet">

<g transform="translate(0.000000,225.000000) scale(0.100000,-0.100000)"
fill="#000000" stroke="none">
<path d="M501 1444 c-66 -55 -24 -159 61 -152 33 2 44 -3 81 -40 38 -37 48
-42 90 -42 46 0 47 -1 47 -30 l0 -30 -66 0 c-60 0 -67 2 -91 30 -52 62 -153
26 -153 -55 0 -81 101 -117 153 -55 24 28 31 30 91 30 l66 0 0 -30 c0 -29 -1
-30 -47 -30 -42 0 -52 -5 -90 -42 -37 -37 -48 -42 -81 -40 -85 7 -127 -97 -61
-152 35 -30 58 -32 98 -11 32 16 53 62 44 95 -9 33 61 100 104 100 l33 0 0
-105 0 -105 345 0 345 0 0 105 0 105 33 0 c43 0 113 -67 104 -100 -9 -33 12
-79 44 -95 40 -21 63 -19 98 11 66 55 24 159 -61 152 -33 -2 -44 3 -81 40 -38
37 -48 42 -90 42 -46 0 -47 1 -47 30 l0 30 66 0 c60 0 67 -2 91 -30 52 -62
153 -26 153 55 0 81 -101 117 -153 55 -24 -28 -31 -30 -91 -30 l-66 0 0 30 c0
29 1 30 47 30 42 0 52 5 90 42 37 37 48 42 81 40 85 -7 127 97 61 152 -35 30
-58 32 -98 11 -32 -16 -53 -62 -44 -95 9 -33 -61 -100 -104 -100 l-33 0 0 105
0 105 -345 0 -345 0 0 -105 0 -105 -33 0 c-43 0 -113 67 -104 100 9 33 -12 79
-44 95 -40 21 -63 19 -98 -11z m87 -60 c4 -30 -21 -48 -47 -34 -21 11 -28 40
-14 54 15 15 58 1 61 -20z m822 -259 l0 -285 -285 0 -285 0 0 285 0 285 285 0
285 0 0 -285z m318 258 c4 -28 -32 -50 -54 -32 -15 12 -19 41 -7 53 16 15 58
1 61 -21z m-1154 -229 c24 -9 20 -51 -4 -59 -37 -12 -64 27 -38 53 14 14 20
14 42 6z m1150 -16 c8 -14 7 -21 -6 -34 -22 -22 -58 -10 -58 21 0 37 43 46 64
13z m-1141 -250 c17 -26 1 -50 -30 -46 -34 4 -43 36 -17 55 21 15 34 13 47 -9z
m1131 9 c28 -21 17 -52 -19 -52 -33 0 -45 25 -25 50 15 18 21 19 44 2z"/>
<path d="M895 1347 c-3 -7 -4 -111 -3 -232 l3 -220 230 0 230 0 0 230 0 230
-228 3 c-179 2 -229 0 -232 -11z m405 -222 l0 -175 -175 0 -175 0 0 175 0 175
175 0 175 0 0 -175z"/>
<path d="M1010 1125 l0 -115 115 0 115 0 0 115 0 115 -115 0 -115 0 0 -115z"/>
</g>
</svg>
